<svg width="19" height="19" viewBox="0 0 19 19" fill="none" xmlns="http://www.w3.org/2000/svg">
<g clip-path="url(#clip0_171_4249)">
<path fill-rule="evenodd" clip-rule="evenodd" d="M9.27874 0.642331C9.30834 0.542807 9.40007 0.474121 9.50412 0.474121C9.60816 0.474121 9.69989 0.542807 9.7295 0.642331C9.7295 0.642331 10.142 2.02503 10.5841 3.50809C11.2886 5.87086 13.1369 7.71912 15.4997 8.42363C16.9827 8.86575 18.3654 9.27825 18.3654 9.27825C18.4649 9.30786 18.5336 9.39958 18.5336 9.50363C18.5336 9.60768 18.4649 9.6994 18.3654 9.72901C18.3654 9.72901 16.9827 10.1415 15.4997 10.5836C13.1369 11.2881 11.2886 13.1364 10.5841 15.4992C10.142 16.9822 9.7295 18.3649 9.7295 18.3649C9.69989 18.4645 9.60816 18.5331 9.50412 18.5331C9.40007 18.5331 9.30834 18.4645 9.27874 18.3649C9.27874 18.3649 8.86623 16.9822 8.42411 15.4992C7.7196 13.1364 5.87133 11.2881 3.50857 10.5836C2.02552 10.1415 0.642819 9.72901 0.642819 9.72901C0.543289 9.6994 0.474609 9.60768 0.474609 9.50363C0.474609 9.39958 0.543289 9.30786 0.642819 9.27825C0.642819 9.27825 2.02552 8.86575 3.50857 8.42363C5.87133 7.71912 7.71961 5.87086 8.42411 3.50809C8.86623 2.02503 9.27874 0.642331 9.27874 0.642331Z" fill="#D4D4D4"/>
</g>
<defs>
<clipPath id="clip0_171_4249">
<rect width="19" height="19" fill="white"/>
</clipPath>
</defs>
</svg>
