<svg width="1793" height="787" viewBox="0 0 1793 787" fill="none" xmlns="http://www.w3.org/2000/svg">
<path d="M378.193 133.548C365.434 134.528 321.577 178.967 246.621 266.863C171.666 354.76 115.375 429.458 77.748 490.958C114.587 458.181 174.328 394.983 256.972 301.361C340.009 207.282 380.89 151.95 379.616 135.363C379.55 134.513 379.076 133.908 378.193 133.548ZM389.431 121.134C393.259 120.839 395.352 123.031 395.712 127.71C397.28 148.123 355.745 206.073 271.105 301.559C186.858 396.587 119.379 464.872 68.6685 506.415C52.0146 534.646 44.1452 554.715 45.0602 566.623C45.3543 570.451 46.3519 572.299 48.0531 572.169C65.4899 570.829 95.6701 554.392 138.594 522.859L174.958 495.039L176.233 503.283C166.124 510.905 154.591 519.491 141.636 529.043C94.6552 563.454 61.596 581.395 42.4581 582.866C37.3546 583.258 34.4924 579.414 33.8715 571.333C31.9762 546.666 46.4063 508.981 77.1619 458.276C107.885 407.147 143.629 357.342 184.395 308.863C225.554 259.926 266.09 216.812 306.005 179.521C346.312 141.773 374.121 122.31 389.431 121.134ZM291.105 339.166C291.595 345.545 295.455 348.457 302.685 347.901C309.915 347.346 316.262 343.65 321.726 336.813C327.157 329.551 329.742 324.219 329.48 320.816C329.219 317.414 327.714 314.535 324.966 312.179C322.644 309.791 319.143 308.777 314.465 309.136C310.212 309.463 305.125 312.848 299.203 319.292C293.281 325.737 290.582 332.361 291.105 339.166ZM156.778 561.889C156.909 563.59 158.037 564.359 160.164 564.196C167.819 563.608 204.15 538.143 269.158 487.801L270.433 496.045L245.601 515.279C229.047 528.101 210.791 541.055 190.834 554.139C170.845 566.797 157.448 573.388 150.643 573.911C145.54 574.303 142.677 570.459 142.057 562.379C141.403 553.873 152.511 531.415 175.382 495.006C198.645 458.14 223.608 423.923 250.273 392.356C252.989 388.725 256.048 386.778 259.45 386.517L274.22 386.665C277.655 386.829 279.438 387.762 279.569 389.463C279.667 390.739 278.571 393.176 276.28 396.774C260.576 415.093 237.592 444.452 207.328 484.851C177.489 525.218 160.639 550.897 156.778 561.889ZM297.602 503.583C297.472 501.882 296.981 501.064 296.13 501.129C290.176 501.587 285.236 506.886 281.309 517.027C277.808 527.135 276.319 535.592 276.842 542.396C277.332 548.776 278.297 552.98 279.736 555.008C292.17 527.529 298.125 510.387 297.602 503.583ZM584.36 101.664C584.294 100.813 583.624 100.437 582.348 100.535C567.463 101.678 488.695 203.986 346.044 407.456C386.612 373.11 436.784 318.988 496.559 245.092C556.727 170.737 585.994 122.928 584.36 101.664ZM114.691 770.466C114.789 771.742 115.689 772.315 117.39 772.184C138.654 770.55 164.909 747.571 196.155 703.245C226.976 658.953 253.56 612.419 275.908 563.644C271.524 562.27 268.924 556.267 268.107 545.634C267.257 534.577 270.726 521.263 278.513 505.691C168.187 667.748 113.58 756.007 114.691 770.466ZM593.341 84.931C597.169 84.6369 599.213 86.191 599.475 89.5933C600.814 107.03 590.802 132.612 569.437 166.338C548.071 200.065 521.423 234.625 489.491 270.019C420.621 348.037 365.296 404.693 323.517 439.988L286.611 494.16C289.817 491.347 292.696 489.842 295.248 489.646C302.053 489.123 305.831 493.753 306.582 503.534C307.334 513.316 304.028 528.757 296.666 549.857C311.813 540.993 327.893 530.346 344.906 517.916L397.661 477.927L398.936 486.171C351.301 523.199 315.935 547.307 292.838 558.493C273.957 607.857 246.064 656.845 209.159 705.455C172.286 754.49 138.964 780.152 109.194 782.439C104.516 782.799 101.964 780.214 101.54 774.685C100.33 758.95 135.814 694.62 207.991 581.697C280.168 468.773 357.236 358.255 439.194 250.141C521.12 141.602 572.502 86.5323 593.341 84.931ZM492.15 478.367C428.876 529.003 388.096 555.024 369.808 556.429C365.13 556.789 362.677 555.48 362.448 552.503C361.533 540.595 374.768 512.412 402.154 467.956C429.539 423.5 461.407 376.132 497.756 325.854C456.863 328.14 431.739 329.643 422.383 330.362C413.026 331.081 408.168 329.101 407.809 324.423C407.678 322.722 409.527 321.724 413.354 321.43L504.725 316.334C551.937 251.531 578.308 218.918 583.837 218.493C595.319 217.61 601.208 219.083 601.502 222.911C601.763 226.313 580.366 256.834 537.309 314.472L644.628 308.151C650.157 307.726 652.987 308.365 653.118 310.066C653.216 311.342 652.43 312.257 650.762 312.813C648.308 314.285 627.306 316.541 587.754 319.58L530.34 323.992C505.114 357.587 486.678 382.105 475.03 397.545C463.35 412.56 448.218 432.76 429.634 458.144C395.182 505.282 378.283 533.105 378.937 541.61C379.067 543.311 380.621 544.048 383.598 543.819C387.001 543.557 397.47 537.833 415.005 526.647C432.508 515.034 445.677 505.467 454.51 497.943L490.972 471.399L492.15 478.367ZM624.12 473.36L621.667 466.49L647.039 445.931C665.196 431.702 677.645 421.12 684.385 414.185C691.124 407.25 695.901 402.605 698.715 400.25C701.921 397.437 705.258 393.544 708.726 388.572C712.619 383.567 714.959 380.606 715.744 379.69C715.744 379.69 718.034 376.092 722.615 368.895C726.476 363.465 728.586 360.308 728.946 359.425C735.881 360.603 739.676 365.445 740.329 373.951C729.794 392.728 714.056 416.183 693.117 444.316C672.177 472.448 661.757 487.152 661.855 488.428C661.92 489.279 662.165 489.688 662.591 489.655C663.441 489.59 666.467 487.218 671.669 482.54C677.264 477.405 692.134 464.925 716.278 445.103C765.418 405.392 798.658 378.667 815.998 364.928C822.77 358.419 827.432 355.066 829.984 354.87C832.961 354.641 835.382 355.525 837.246 357.52C839.504 359.058 840.763 361.528 841.024 364.931C841.286 368.333 838.423 375.611 832.435 386.767C826.447 397.922 820.002 408.684 813.098 419.054C795.07 446.107 783.897 462.152 779.578 467.19C777.713 470.756 776.814 472.964 776.879 473.814C776.912 474.24 777.141 474.436 777.566 474.403C780.543 474.175 825.185 437.162 911.491 363.366C925.559 351.59 935.145 345.506 940.248 345.114C944.076 344.82 946.316 348.926 946.97 357.431C947.591 365.512 942.159 378.335 930.675 395.902C919.191 413.469 906.333 429.857 892.101 445.068C854.149 485.631 835.32 507.826 835.614 511.653C835.647 512.079 836.514 512.226 838.215 512.095C843.318 511.703 870.734 492.698 920.463 455.081L945.295 435.847L946.57 444.091C881.595 494.858 841.666 520.814 826.78 521.958C824.229 522.154 822.855 520.976 822.659 518.424C821.45 502.688 829.81 483.437 847.739 460.669C866.061 437.444 884.35 416.574 902.606 398.059C920.829 379.119 929.729 366.884 929.304 361.356C929.239 360.505 928.781 360.113 927.93 360.178C927.505 360.211 926.278 360.947 924.249 362.386C922.221 363.825 896.866 384.596 848.184 424.7C799.927 464.771 771.791 488.323 763.775 495.356C755.727 501.963 746.01 511.908 734.624 525.189C730.633 528.918 724.172 531.125 715.241 531.812C706.309 532.498 701.779 531.99 701.648 530.289C701.485 528.163 702.973 525.268 706.114 521.604C729.671 494.126 754.667 463.115 781.103 428.571C807.964 393.994 821.935 375.381 823.015 372.731C822.916 371.455 822.23 370.867 820.954 370.965C816.701 371.291 791.853 390.313 746.41 428.028C700.934 465.319 674.581 487.022 667.35 493.139C648.505 509.56 638.478 518.245 637.267 519.194C636.449 519.684 634.486 521.974 631.378 526.063C624.344 534.732 617.637 539.311 611.258 539.801C604.748 538.59 601.247 537.576 600.757 536.758C609.689 524.949 631.659 493.529 666.667 442.498L624.12 473.36ZM1132.95 421.428L1134.23 429.672C1069.25 480.439 1029.32 506.395 1014.44 507.538C1011.89 507.734 1010.49 506.344 1010.27 503.367C1009.58 494.436 1012 481.416 1017.53 464.307L1020.04 455.131C1019.97 454.28 1019.09 453.92 1017.39 454.051C1016.11 454.149 1004.43 463.602 982.346 482.411C960.688 501.187 946.244 510.853 939.014 511.409C932.209 511.931 928.317 505.814 927.337 493.055C924.624 457.756 941.966 421.772 979.361 385.102C1017.18 348.4 1064.37 327.876 1120.94 323.53C1126.04 323.138 1128.76 325.068 1129.08 329.321C1129.41 333.574 1111.33 359.989 1074.85 408.566C1038.34 456.719 1020.44 485.473 1021.16 494.829C1021.29 496.531 1022.63 497.283 1025.18 497.087C1027.74 496.891 1038.16 490.529 1056.44 478.001C1074.73 465.473 1091.96 453.027 1108.12 440.662L1132.95 421.428ZM1031.57 429.86C1038.37 423.776 1051.28 408.025 1070.29 382.607C1089.3 357.19 1098.66 342.568 1098.36 338.74C1098.23 337.039 1096.47 336.319 1093.06 336.58C1073.5 338.084 1051.45 348.976 1026.91 369.256C1002.34 389.112 981.796 411.225 965.273 435.596C949.176 459.934 941.667 479.12 942.745 493.154C942.941 495.706 944.315 496.884 946.867 496.688C949.418 496.492 953.344 494.693 958.644 491.291C964.337 487.431 971.011 482.426 978.667 476.277C986.715 469.669 993.553 464.01 999.18 459.3C1018.42 442.421 1029.21 432.608 1031.57 429.86ZM1134.18 429.676C1132.15 431.115 1129.73 433.012 1126.91 435.368L1124.41 427.86C1170.12 393.546 1207.41 366.724 1236.3 347.392L1252.74 335.862C1258.73 330.268 1265.29 323.775 1272.42 316.382C1287.6 302.381 1295.63 295.561 1296.52 295.921C1298.64 295.758 1299.79 296.739 1299.95 298.866C1300.08 300.567 1298.63 303.887 1295.58 308.827C1292.51 313.341 1288.01 318.82 1282.09 325.265C1276.59 331.676 1273.27 335.781 1272.12 337.581C1266.23 344.45 1257.17 365.681 1244.93 401.273C1233.09 436.407 1226.62 455.299 1225.55 457.949C1225.68 459.65 1226.17 460.468 1227.02 460.402C1228.29 460.304 1229.13 460.026 1229.52 459.568L1297.49 408.785L1298.76 417.029C1293.89 420.399 1285.79 426.368 1274.47 434.938C1263.15 443.509 1255.05 449.478 1250.18 452.847C1245.73 456.184 1239.06 461.189 1230.16 467.862C1221.23 474.109 1214.31 478.705 1209.4 481.649C1204.49 484.593 1198.77 488.027 1192.22 491.952C1175.18 498.396 1164.32 501.797 1159.64 502.156C1159.21 502.189 1159 502.205 1159 502.205C1147.52 503.088 1137.9 500.404 1130.15 494.155C1122.39 487.906 1118.18 480.316 1117.49 471.385C1116.8 462.454 1119.19 454.57 1124.66 447.733C1130.54 440.864 1137.74 437.102 1146.25 436.449C1154.75 435.795 1159.27 438.871 1159.79 445.675C1160.08 449.503 1158.87 453.232 1156.16 456.863C1153.87 460.462 1150.6 462.424 1146.34 462.751C1142.52 463.045 1140.03 461.311 1138.89 457.549C1138.17 453.754 1136.96 451.922 1135.25 452.053C1132.28 452.281 1129.84 453.966 1127.94 457.106C1126.47 460.214 1125.95 464.532 1126.37 470.061C1126.8 475.59 1129.77 480.922 1135.3 486.059C1140.8 490.77 1148.22 492.767 1157.58 492.048C1166.93 491.329 1175.39 487.256 1182.95 479.831C1190.93 472.373 1196.22 465.978 1198.8 460.645C1201.39 455.313 1206.67 440.576 1214.65 416.433C1222.61 391.866 1231.38 372.369 1240.96 357.943L1242.04 355.293C1242.01 354.868 1241.35 354.704 1240.08 354.802C1236.68 355.063 1209.67 373.823 1159.06 411.08L1134.18 429.676ZM1391.73 409.244C1328.46 459.88 1287.68 485.901 1269.39 487.306C1264.71 487.666 1262.26 486.357 1262.03 483.38C1261.12 471.472 1274.35 443.29 1301.74 398.833C1329.12 354.377 1360.99 307.01 1397.34 256.731C1356.45 259.017 1331.32 260.52 1321.97 261.239C1312.61 261.958 1307.75 259.978 1307.39 255.3C1307.26 253.599 1309.11 252.601 1312.94 252.307L1404.31 247.212C1451.52 182.409 1477.89 149.795 1483.42 149.37C1494.9 148.488 1500.79 149.96 1501.08 153.788C1501.35 157.19 1479.95 187.711 1436.89 245.35L1544.21 239.028C1549.74 238.604 1552.57 239.242 1552.7 240.943C1552.8 242.219 1552.01 243.135 1550.34 243.691C1547.89 245.163 1526.89 247.418 1487.34 250.457L1429.92 254.869C1404.7 288.464 1386.26 312.982 1374.61 328.422C1362.93 343.437 1347.8 363.637 1329.22 389.021C1294.77 436.16 1277.87 463.982 1278.52 472.487C1278.65 474.189 1280.2 474.925 1283.18 474.696C1286.58 474.435 1297.05 468.711 1314.59 457.524C1332.09 445.912 1345.26 436.344 1354.09 428.82L1390.56 402.276L1391.73 409.244ZM1521.87 302.989C1521.78 301.714 1520.88 301.141 1519.17 301.272C1507.69 302.154 1490.6 313.521 1467.89 335.372C1445.19 357.223 1425.82 380.743 1409.79 405.932C1430.53 397.493 1454.44 380.255 1481.53 354.217C1509.05 328.146 1522.49 311.07 1521.87 302.989ZM1386.08 464.864C1386.5 470.393 1388.84 472.994 1393.1 472.667C1398.2 472.275 1409.42 467.991 1426.76 459.813C1444.07 451.211 1458.2 443.066 1469.16 435.379L1528.64 391.024L1529.91 399.268C1487.55 432.469 1455.61 453.96 1434.12 463.74C1413.05 473.487 1398.9 478.638 1391.67 479.194C1379.76 480.109 1373.24 473.124 1372.1 458.239C1370.56 438.25 1376.25 417.706 1389.18 396.606C1402.1 375.507 1417.64 357.842 1435.8 343.613C1454.38 329.351 1472.29 317.494 1489.54 308.041C1507.2 298.555 1520.71 293.453 1530.07 292.734C1539.43 292.015 1544.35 294.845 1544.84 301.225C1546.05 316.96 1528.81 337.536 1493.11 362.952C1457.84 388.335 1428.16 405.59 1404.04 414.715C1391.19 436.665 1385.2 453.382 1386.08 464.864ZM1720.95 356.996L1726.5 362.345C1707.85 375.756 1692.67 386.976 1680.96 396.004C1669.25 405.032 1660.2 409.791 1653.82 410.282C1644.46 411 1639.48 407.32 1638.85 399.239C1638.4 393.285 1640.69 381.345 1645.73 363.418C1651.16 345.033 1654.87 332.127 1656.87 324.701L1654.81 322.935C1653.11 323.065 1651.26 324.063 1649.26 325.928C1608.96 363.676 1582.88 388.995 1571.04 401.883C1559.62 414.739 1548.48 428.429 1537.62 442.953C1527.18 457.445 1521.37 465.378 1520.19 466.751C1519.44 468.093 1518.87 468.992 1518.48 469.45C1517.3 470.824 1513.09 471.789 1505.87 472.344C1498.21 472.933 1494.33 472.589 1494.24 471.313C1494.99 469.972 1499.85 463.609 1508.81 452.225C1530.63 424.453 1550.2 397.923 1567.51 372.637L1549.84 384.903C1531.19 398.314 1517.63 408.34 1509.16 414.98L1506.07 408.159L1544.3 379.554C1558.04 369.086 1569.62 358.357 1579.04 347.366C1588.89 336.342 1595.48 327.493 1598.82 320.82C1602.16 314.146 1605.15 308.569 1607.8 304.087C1610.45 299.606 1613.05 297.267 1615.6 297.071C1618.15 296.875 1622.31 298.053 1628.07 300.605C1628.39 304.858 1625.56 312.562 1619.58 323.717C1613.59 334.872 1607.52 344.964 1601.37 353.992L1592.09 366.897C1592.16 367.748 1592.4 368.157 1592.83 368.124C1594.1 368.026 1595.54 367.274 1597.15 365.867C1598.72 364.035 1605.28 357.542 1616.83 346.388C1628.77 334.775 1639.14 324.994 1647.94 317.046C1656.71 308.671 1666.78 300.625 1678.17 292.905C1689.98 285.153 1698.65 281.064 1704.18 280.639C1709.71 280.214 1712.57 281.278 1712.77 283.83C1713.03 287.232 1703.16 295.262 1683.17 307.921C1678.69 310.832 1672.41 323.721 1664.33 346.588C1656.64 368.996 1653.18 385.304 1653.97 395.511C1654.13 397.638 1656.13 398.554 1659.96 398.26C1664.21 397.933 1671.99 393.484 1683.31 384.914L1720.95 356.996Z" fill="white" fill-opacity="0.05"/>
<path d="M1760.41 330.283C1761.61 330.283 1762.79 330.258 1763.94 330.208C1765.14 330.107 1766.2 329.882 1767.1 329.531C1768 329.181 1768.73 328.63 1769.28 327.879C1769.83 327.077 1770.1 326 1770.1 324.648C1770.1 323.496 1769.88 322.569 1769.43 321.868C1769.03 321.167 1768.45 320.616 1767.7 320.215C1767 319.765 1766.2 319.464 1765.29 319.314C1764.39 319.164 1763.44 319.089 1762.44 319.089H1755.15V330.283H1760.41ZM1755.15 348.013H1751.17V315.708H1763.57C1767.22 315.708 1769.88 316.484 1771.53 318.037C1773.23 319.539 1774.08 321.743 1774.08 324.648C1774.08 326.05 1773.86 327.277 1773.41 328.329C1773.01 329.381 1772.43 330.283 1771.68 331.034C1770.93 331.735 1770.05 332.311 1769.05 332.762C1768.1 333.163 1767.07 333.463 1765.97 333.663L1775.59 348.013H1770.93L1761.84 333.663H1755.15V348.013ZM1761.31 307.894C1757.91 307.894 1754.75 308.52 1751.85 309.773C1748.99 311.025 1746.51 312.728 1744.41 314.881C1742.31 317.035 1740.65 319.564 1739.45 322.469C1738.3 325.374 1737.72 328.505 1737.72 331.86C1737.72 335.216 1738.3 338.346 1739.45 341.251C1740.65 344.156 1742.31 346.686 1744.41 348.839C1746.51 350.993 1748.99 352.696 1751.85 353.948C1754.75 355.2 1757.91 355.826 1761.31 355.826C1764.67 355.826 1767.77 355.2 1770.63 353.948C1773.53 352.696 1776.04 350.993 1778.14 348.839C1780.25 346.686 1781.9 344.156 1783.1 341.251C1784.3 338.346 1784.9 335.216 1784.9 331.86C1784.9 328.505 1784.3 325.374 1783.1 322.469C1781.9 319.564 1780.25 317.035 1778.14 314.881C1776.04 312.728 1773.53 311.025 1770.63 309.773C1767.77 308.52 1764.67 307.894 1761.31 307.894ZM1761.31 303.913C1765.27 303.913 1768.95 304.639 1772.36 306.091C1775.76 307.494 1778.72 309.472 1781.22 312.026C1783.73 314.531 1785.68 317.486 1787.08 320.892C1788.53 324.297 1789.26 327.954 1789.26 331.86C1789.26 335.817 1788.53 339.498 1787.08 342.904C1785.68 346.26 1783.73 349.19 1781.22 351.694C1778.72 354.198 1775.76 356.177 1772.36 357.629C1768.95 359.032 1765.27 359.733 1761.31 359.733C1757.36 359.733 1753.68 359.032 1750.27 357.629C1746.86 356.177 1743.91 354.198 1741.4 351.694C1738.9 349.19 1736.92 346.26 1735.47 342.904C1734.07 339.498 1733.37 335.817 1733.37 331.86C1733.37 327.954 1734.07 324.297 1735.47 320.892C1736.92 317.486 1738.9 314.531 1741.4 312.026C1743.91 309.472 1746.86 307.494 1750.27 306.091C1753.68 304.639 1757.36 303.913 1761.31 303.913Z" fill="white" fill-opacity="0.05"/>
</svg>
